<svg width="19" height="18" viewBox="0 0 19 18" fill="none" xmlns="http://www.w3.org/2000/svg">
<path d="M9.70361 0.400024C11.8253 0.400024 13.8602 1.24288 15.3605 2.74317C16.8608 4.24346 17.7036 6.27829 17.7036 8.40002C17.7036 10.5218 16.8608 12.5566 15.3605 14.0569C13.8602 15.5572 11.8253 16.4 9.70361 16.4C7.58188 16.4 5.54705 15.5572 4.04676 14.0569C2.54647 12.5566 1.70361 10.5218 1.70361 8.40002C1.70361 6.27829 2.54647 4.24346 4.04676 2.74317C5.54705 1.24288 7.58188 0.400024 9.70361 0.400024V0.400024ZM9.70361 7.42974L7.84533 5.57145C7.71666 5.44279 7.54215 5.3705 7.36019 5.3705C7.17822 5.3705 7.00371 5.44279 6.87504 5.57145C6.74637 5.70012 6.67409 5.87463 6.67409 6.0566C6.67409 6.23856 6.74637 6.41307 6.87504 6.54174L8.73333 8.40002L6.87504 10.2583C6.81133 10.322 6.76079 10.3977 6.72632 10.4809C6.69184 10.5641 6.67409 10.6534 6.67409 10.7435C6.67409 10.8336 6.69184 10.9228 6.72632 11.006C6.76079 11.0893 6.81133 11.1649 6.87504 11.2286C6.93875 11.2923 7.01439 11.3428 7.09763 11.3773C7.18087 11.4118 7.27009 11.4295 7.36019 11.4295C7.45028 11.4295 7.5395 11.4118 7.62274 11.3773C7.70598 11.3428 7.78162 11.2923 7.84533 11.2286L9.70361 9.37031L11.5619 11.2286C11.6256 11.2923 11.7012 11.3428 11.7845 11.3773C11.8677 11.4118 11.9569 11.4295 12.047 11.4295C12.1371 11.4295 12.2264 11.4118 12.3096 11.3773C12.3928 11.3428 12.4685 11.2923 12.5322 11.2286C12.5959 11.1649 12.6464 11.0893 12.6809 11.006C12.7154 10.9228 12.7331 10.8336 12.7331 10.7435C12.7331 10.6534 12.7154 10.5641 12.6809 10.4809C12.6464 10.3977 12.5959 10.322 12.5322 10.2583L10.6739 8.40002L12.5322 6.54174C12.5959 6.47803 12.6464 6.40239 12.6809 6.31915C12.7154 6.23591 12.7331 6.1467 12.7331 6.0566C12.7331 5.9665 12.7154 5.87728 12.6809 5.79404C12.6464 5.7108 12.5959 5.63516 12.5322 5.57145C12.4685 5.50774 12.3928 5.45721 12.3096 5.42273C12.2264 5.38825 12.1371 5.3705 12.047 5.3705C11.9569 5.3705 11.8677 5.38825 11.7845 5.42273C11.7012 5.45721 11.6256 5.50774 11.5619 5.57145L9.70361 7.42974Z" fill="#1D2A38"/>
</svg>
