<svg width="30" height="30" viewBox="0 0 30 30" fill="none" xmlns="http://www.w3.org/2000/svg">
<path fill-rule="evenodd" clip-rule="evenodd" d="M28.9875 16.6626L13.336 1.00888C11.9461 -0.378559 9.6415 -0.329811 8.18961 1.12325L8.02244 1.29012L7.95858 1.22637C6.35268 -0.378559 3.6818 -0.312937 1.99326 1.37449L1.5143 1.85447C-0.174246 3.54002 -0.238107 6.20991 1.3678 7.81484L1.43354 7.88046L1.12363 8.1917C-0.328263 9.64101 -0.380854 11.9453 1.01093 13.3365L16.6624 28.9902C18.0523 30.3795 20.3607 30.3289 21.8088 28.8777L28.8767 21.8092C30.3304 20.3562 30.3793 18.0538 28.9875 16.6626V16.6626ZM6.39776 9.67664C4.77119 9.67664 3.45454 8.30044 3.45078 6.59989C3.45078 4.90121 4.77119 3.52502 6.39776 3.52502C8.02432 3.52502 9.33534 4.90309 9.34098 6.59989C9.33534 8.30044 8.02057 9.67664 6.39776 9.67664ZM23.3039 24.5054L21.2679 22.4711C20.0433 23.3392 18.5087 23.6129 17.1658 23.1498C17.0126 23.0987 16.8716 23.017 16.7511 22.9096C16.6307 22.8023 16.5334 22.6716 16.4652 22.5255C16.3937 22.3751 16.3535 22.2119 16.347 22.0456C16.3406 21.8793 16.368 21.7134 16.4276 21.558C16.5435 21.2473 16.7756 20.9935 17.0752 20.8501C17.3747 20.7068 17.7182 20.6849 18.0335 20.7893C18.4805 20.943 18.9914 20.8774 19.4629 20.6618L17.1094 18.3031C15.3194 19.5818 12.9416 19.5443 11.4897 18.0988C10.0284 16.642 9.99649 14.2608 11.2944 12.4778L9.29965 10.4847L10.4811 9.3054L12.4889 11.3022C13.7248 10.4379 15.2612 10.1641 16.6061 10.6291C16.7611 10.6829 16.9036 10.7674 17.0251 10.8775C17.1467 10.9876 17.2448 11.121 17.3135 11.2697C17.3822 11.4185 17.4202 11.5796 17.4252 11.7433C17.4301 11.9071 17.4019 12.0701 17.3423 12.2228C17.2234 12.532 16.9901 12.7839 16.6907 12.9266C16.3912 13.0692 16.0483 13.0918 15.7327 12.9896C15.2856 12.834 14.7785 12.8977 14.309 13.1077L16.6793 15.4645C18.458 14.2177 20.8077 14.2683 22.2483 15.7045C23.6889 17.1426 23.7453 19.4787 22.4981 21.2449L24.5266 23.2623L23.3039 24.5054Z" fill="white"/>
</svg>
