<svg width="35" height="35" viewBox="0 0 35 35" fill="none" xmlns="http://www.w3.org/2000/svg">
<path d="M32.2368 35C33.7603 35 35 33.7603 35 32.2368V25.7895C35 24.2661 33.7603 23.0263 32.2368 23.0263C30.0816 23.0263 27.9632 22.6874 25.9368 22.0187C25.4525 21.8657 24.9357 21.8471 24.4416 21.9649C23.9475 22.0827 23.4946 22.3324 23.1313 22.6874L20.4787 25.34C15.8939 22.851 12.1285 19.0868 9.63789 14.5029L12.2684 11.8558C13.0274 11.1521 13.3 10.0818 12.9758 9.05211C12.3085 7.02266 11.9702 4.8995 11.9737 2.76316C11.9737 1.23974 10.7339 0 9.21053 0H2.76316C1.23974 0 0 1.23974 0 2.76316C0 20.5395 14.4605 35 32.2368 35ZM2.76316 1.84211H9.21053C9.4548 1.84211 9.68908 1.93914 9.86181 2.11188C10.0345 2.28461 10.1316 2.51888 10.1316 2.76316C10.1316 5.11553 10.5 7.42553 11.2239 9.61579C11.2771 9.77473 11.2834 9.94564 11.2419 10.108C11.2004 10.2704 11.1129 10.4174 10.99 10.5313L7.38684 14.1529C10.4024 20.0992 14.8566 24.5534 20.8305 27.5947L24.4208 24.0026C24.5433 23.8814 24.6965 23.7958 24.8639 23.7549C25.0313 23.714 25.2067 23.7194 25.3713 23.7705C27.5745 24.5 29.8845 24.8684 32.2368 24.8684C32.7434 24.8684 33.1579 25.2829 33.1579 25.7895V32.2368C33.1579 32.7434 32.7434 33.1579 32.2368 33.1579C15.4774 33.1579 1.84211 19.5226 1.84211 2.76316C1.84211 2.51888 1.93914 2.28461 2.11188 2.11188C2.28461 1.93914 2.51888 1.84211 2.76316 1.84211Z" fill="white"/>
</svg>
