<svg width="49" height="49" viewBox="0 0 49 49" fill="none" xmlns="http://www.w3.org/2000/svg">
<g clip-path="url(#clip0_103_174)">
<path d="M13.8988 0C14.3537 0 14.7899 0.180687 15.1115 0.502312C15.4332 0.823937 15.6139 1.26015 15.6139 1.715V4.92205H34.0305V1.73705C34.0305 1.2822 34.2112 0.845987 34.5328 0.524362C34.8544 0.202737 35.2907 0.02205 35.7455 0.02205C36.2003 0.02205 36.6366 0.202737 36.9582 0.524362C37.2798 0.845987 37.4605 1.2822 37.4605 1.73705V4.92205H44.1C45.3991 4.92205 46.6451 5.43796 47.564 6.35636C48.4828 7.27476 48.9994 8.52046 49 9.8196V44.1025C48.9994 45.4016 48.4828 46.6473 47.564 47.5657C46.6451 48.4841 45.3991 49 44.1 49H4.9C3.60086 49 2.3549 48.4841 1.43604 47.5657C0.517185 46.6473 0.000649568 45.4016 0 44.1025L0 9.8196C0.000649568 8.52046 0.517185 7.27476 1.43604 6.35636C2.3549 5.43796 3.60086 4.92205 4.9 4.92205H12.1839V1.71255C12.1845 1.25813 12.3655 0.822541 12.687 0.501445C13.0086 0.18035 13.4444 -4.63695e-07 13.8988 0V0ZM3.43 18.9679V44.1025C3.43 44.2955 3.46802 44.4866 3.5419 44.665C3.61577 44.8433 3.72405 45.0054 3.86055 45.1419C3.99706 45.2784 4.15911 45.3867 4.33746 45.4606C4.5158 45.5344 4.70696 45.5724 4.9 45.5724H44.1C44.293 45.5724 44.4842 45.5344 44.6625 45.4606C44.8409 45.3867 45.0029 45.2784 45.1395 45.1419C45.276 45.0054 45.3842 44.8433 45.4581 44.665C45.532 44.4866 45.57 44.2955 45.57 44.1025V19.0022L3.43 18.9679ZM16.3342 35.8166V39.8983H12.25V35.8166H16.3342ZM26.5409 35.8166V39.8983H22.4592V35.8166H26.5409ZM36.75 35.8166V39.8983H32.6659V35.8166H36.75ZM16.3342 26.0729V30.1546H12.25V26.0729H16.3342ZM26.5409 26.0729V30.1546H22.4592V26.0729H26.5409ZM36.75 26.0729V30.1546H32.6659V26.0729H36.75ZM12.1839 8.3496H4.9C4.70696 8.3496 4.5158 8.38762 4.33746 8.4615C4.15911 8.53537 3.99706 8.64365 3.86055 8.78015C3.72405 8.91666 3.61577 9.07871 3.5419 9.25706C3.46802 9.4354 3.43 9.62656 3.43 9.8196V15.5403L45.57 15.5746V9.8196C45.57 9.62656 45.532 9.4354 45.4581 9.25706C45.3842 9.07871 45.276 8.91666 45.1395 8.78015C45.0029 8.64365 44.8409 8.53537 44.6625 8.4615C44.4842 8.38762 44.293 8.3496 44.1 8.3496H37.4605V10.6257C37.4605 11.0805 37.2798 11.5167 36.9582 11.8383C36.6366 12.16 36.2003 12.3407 35.7455 12.3407C35.2907 12.3407 34.8544 12.16 34.5328 11.8383C34.2112 11.5167 34.0305 11.0805 34.0305 10.6257V8.3496H15.6139V10.6036C15.6139 11.0584 15.4332 11.4947 15.1115 11.8163C14.7899 12.1379 14.3537 12.3186 13.8988 12.3186C13.444 12.3186 13.0078 12.1379 12.6862 11.8163C12.3645 11.4947 12.1839 11.0584 12.1839 10.6036V8.3496Z" fill="#AAAAAA"/>
</g>
<defs>
<clipPath id="clip0_103_174">
<rect width="49" height="49" fill="white"/>
</clipPath>
</defs>
</svg>
