<svg width="98" height="91" viewBox="0 0 98 91" fill="none" xmlns="http://www.w3.org/2000/svg">
<rect x="0.506775" y="0.382568" width="97.0985" height="90.3016" rx="7.76788" fill="#6E2FF4"/>
<path d="M30.5801 19.3942V13.8363H40.2628V39.3538H34.0407V19.3942H30.5801ZM64.7657 19.0446H53.8596V23.8685C54.3257 23.3558 54.9782 22.9363 55.8171 22.6101C56.656 22.2838 57.5649 22.1207 58.5436 22.1207C60.2914 22.1207 61.7362 22.5169 62.8781 23.3092C64.0433 24.1015 64.8939 25.1269 65.4299 26.3853C65.9659 27.6437 66.2338 29.0069 66.2338 30.4751C66.2338 33.2016 65.4648 35.3688 63.9268 36.9768C62.3887 38.5614 60.2215 39.3538 57.4251 39.3538C55.5608 39.3538 53.9412 39.0392 52.5663 38.41C51.1913 37.7575 50.131 36.8603 49.3853 35.7184C48.6396 34.5765 48.2318 33.2599 48.1619 31.7684H53.9994C54.1393 32.4908 54.4772 33.0967 55.0131 33.5861C55.5491 34.0522 56.2832 34.2852 57.2153 34.2852C58.3106 34.2852 59.1262 33.9357 59.6622 33.2366C60.1982 32.5374 60.4662 31.6053 60.4662 30.4401C60.4662 29.2982 60.1866 28.4243 59.6273 27.8185C59.068 27.2126 58.2523 26.9096 57.1804 26.9096C56.3881 26.9096 55.7356 27.1077 55.2229 27.5039C54.7102 27.8767 54.3723 28.3777 54.2092 29.0069H48.4415V13.8013H64.7657V19.0446Z" fill="white"/>
<path d="M23.7249 61.9314V72.7288H21.9538V65.3337L18.6603 72.7288H17.4329L14.1238 65.3337V72.7288H12.3527V61.9314H14.2636L18.0544 70.3984L21.8296 61.9314H23.7249ZM25.7731 68.4098C25.7731 67.5502 25.9492 66.7889 26.3013 66.1261C26.6638 65.4632 27.1506 64.9505 27.7617 64.588C28.3831 64.2152 29.0667 64.0287 29.8124 64.0287C30.4856 64.0287 31.0708 64.1634 31.5679 64.4327C32.0754 64.6916 32.4794 65.0178 32.7797 65.4114V64.1686H34.5663V72.7288H32.7797V71.4548C32.4794 71.8588 32.0703 72.1954 31.5524 72.4647C31.0345 72.7339 30.4442 72.8686 29.7813 72.8686C29.046 72.8686 28.3727 72.6822 27.7617 72.3093C27.1506 71.9261 26.6638 71.3979 26.3013 70.7246C25.9492 70.0411 25.7731 69.2695 25.7731 68.4098ZM32.7797 68.4409C32.7797 67.8505 32.6554 67.3379 32.4069 66.9028C32.1686 66.4678 31.8528 66.1364 31.4592 65.9086C31.0656 65.6807 30.641 65.5668 30.1852 65.5668C29.7295 65.5668 29.3049 65.6807 28.9113 65.9086C28.5177 66.1261 28.1967 66.4523 27.9481 66.8873C27.7099 67.312 27.5908 67.8195 27.5908 68.4098C27.5908 69.0002 27.7099 69.518 27.9481 69.9634C28.1967 70.4088 28.5177 70.7505 28.9113 70.9888C29.3152 71.2166 29.7399 71.3305 30.1852 71.3305C30.641 71.3305 31.0656 71.2166 31.4592 70.9888C31.8528 70.7609 32.1686 70.4295 32.4069 69.9945C32.6554 69.5491 32.7797 69.0312 32.7797 68.4409ZM44.909 64.1686L39.6579 76.7525H37.8247L39.5647 72.5889L36.1935 64.1686H38.1665L40.5745 70.6936L43.0758 64.1686H44.909ZM48.4983 70.6004L46.6184 74.8882H45.4688L46.5718 70.6004H48.4983ZM51.1022 70.3207C52.0965 69.4611 52.8785 68.7568 53.4481 68.2079C54.0281 67.6486 54.5097 67.0686 54.8929 66.4678C55.2762 65.8671 55.4678 65.2664 55.4678 64.6657C55.4678 64.0443 55.3176 63.5575 55.0172 63.2053C54.7272 62.8532 54.2663 62.6771 53.6345 62.6771C53.0235 62.6771 52.547 62.8739 52.2052 63.2675C51.8738 63.6507 51.6977 64.1686 51.677 64.8211H49.9681C49.9992 63.6403 50.3513 62.7393 51.0245 62.1178C51.7081 61.486 52.5729 61.1702 53.619 61.1702C54.7479 61.1702 55.6283 61.4809 56.2601 62.1023C56.9022 62.7237 57.2233 63.5523 57.2233 64.588C57.2233 65.3337 57.0317 66.0536 56.6485 66.7475C56.2756 67.4311 55.8251 68.0473 55.2969 68.5962C54.779 69.1348 54.1161 69.7614 53.3083 70.4761L52.6092 71.0975H57.534V72.5734H49.9836V71.2839L51.1022 70.3207ZM59.4006 66.9184C59.4006 65.1266 59.701 63.7284 60.3017 62.7237C60.9128 61.7087 61.9588 61.2012 63.4399 61.2012C64.921 61.2012 65.9619 61.7087 66.5626 62.7237C67.1737 63.7284 67.4792 65.1266 67.4792 66.9184C67.4792 68.7309 67.1737 70.1498 66.5626 71.1752C65.9619 72.1902 64.921 72.6977 63.4399 72.6977C61.9588 72.6977 60.9128 72.1902 60.3017 71.1752C59.701 70.1498 59.4006 68.7309 59.4006 66.9184ZM65.7392 66.9184C65.7392 66.0795 65.6822 65.37 65.5683 64.79C65.4647 64.21 65.2472 63.7387 64.9158 63.3762C64.5844 63.0034 64.0924 62.8169 63.4399 62.8169C62.7874 62.8169 62.2954 63.0034 61.964 63.3762C61.6326 63.7387 61.4099 64.21 61.296 64.79C61.1924 65.37 61.1406 66.0795 61.1406 66.9184C61.1406 67.7884 61.1924 68.5186 61.296 69.1089C61.3995 69.6993 61.617 70.1757 61.9485 70.5382C62.2903 70.9007 62.7874 71.082 63.4399 71.082C64.0924 71.082 64.5844 70.9007 64.9158 70.5382C65.2576 70.1757 65.4803 69.6993 65.5838 69.1089C65.6874 68.5186 65.7392 67.7884 65.7392 66.9184ZM70.6427 70.3207C71.637 69.4611 72.4189 68.7568 72.9886 68.2079C73.5686 67.6486 74.0502 67.0686 74.4334 66.4678C74.8166 65.8671 75.0082 65.2664 75.0082 64.6657C75.0082 64.0443 74.8581 63.5575 74.5577 63.2053C74.2677 62.8532 73.8068 62.6771 73.175 62.6771C72.5639 62.6771 72.0875 62.8739 71.7457 63.2675C71.4143 63.6507 71.2382 64.1686 71.2175 64.8211H69.5086C69.5396 63.6403 69.8918 62.7393 70.565 62.1178C71.2486 61.486 72.1134 61.1702 73.1595 61.1702C74.2884 61.1702 75.1688 61.4809 75.8006 62.1023C76.4427 62.7237 76.7638 63.5523 76.7638 64.588C76.7638 65.3337 76.5722 66.0536 76.1889 66.7475C75.8161 67.4311 75.3656 68.0473 74.8373 68.5962C74.3195 69.1348 73.6566 69.7614 72.8488 70.4761L72.1496 71.0975H77.0745V72.5734H69.5241V71.2839L70.6427 70.3207ZM79.9198 70.3207C80.9141 69.4611 81.6961 68.7568 82.2657 68.2079C82.8457 67.6486 83.3273 67.0686 83.7106 66.4678C84.0938 65.8671 84.2854 65.2664 84.2854 64.6657C84.2854 64.0443 84.1352 63.5575 83.8348 63.2053C83.5448 62.8532 83.0839 62.6771 82.4522 62.6771C81.8411 62.6771 81.3647 62.8739 81.0229 63.2675C80.6914 63.6507 80.5154 64.1686 80.4947 64.8211H78.7857C78.8168 63.6403 79.1689 62.7393 79.8422 62.1178C80.5257 61.486 81.3906 61.1702 82.4366 61.1702C83.5656 61.1702 84.4459 61.4809 85.0777 62.1023C85.7199 62.7237 86.0409 63.5523 86.0409 64.588C86.0409 65.3337 85.8493 66.0536 85.4661 66.7475C85.0932 67.4311 84.6427 68.0473 84.1145 68.5962C83.5966 69.1348 82.9338 69.7614 82.1259 70.4761L81.4268 71.0975H86.3516V72.5734H78.8013V71.2839L79.9198 70.3207Z" fill="white"/>
</svg>
