<svg width="30" height="30" viewBox="0 0 30 30" fill="none" xmlns="http://www.w3.org/2000/svg">
<path d="M9.3525 12.39C9.29375 12.6264 9.14526 12.8307 8.93849 12.9596C8.73172 13.0884 8.4829 13.1317 8.24476 13.0803C8.00661 13.0289 7.79784 12.8868 7.66267 12.6841C7.5275 12.4814 7.47656 12.234 7.52063 11.9944V11.985C7.55514 11.8398 7.59898 11.697 7.65187 11.5575C7.74562 11.3269 7.89188 11.0137 8.12438 10.695C8.42758 10.2753 8.82848 9.93573 9.29238 9.70573C9.75629 9.47574 10.2692 9.36222 10.7869 9.375C11.8237 9.375 12.6656 9.77812 13.2413 10.4269C13.8 11.0587 14.0625 11.8744 14.0625 12.6562C14.0625 13.3106 13.9331 13.8713 13.6781 14.355C13.425 14.835 13.0781 15.1819 12.7275 15.4519C12.4397 15.6656 12.1391 15.8616 11.8275 16.0387L11.7225 16.1025C11.4075 16.29 11.1488 16.4531 10.9256 16.6463C10.1869 17.2856 9.70313 17.9625 9.49313 18.75H13.125C13.3736 18.75 13.6121 18.8488 13.7879 19.0246C13.9637 19.2004 14.0625 19.4389 14.0625 19.6875C14.0625 19.9361 13.9637 20.1746 13.7879 20.3504C13.6121 20.5262 13.3736 20.625 13.125 20.625H8.4375C8.18886 20.625 7.9504 20.5262 7.77459 20.3504C7.59877 20.1746 7.5 19.9361 7.5 19.6875C7.5 17.7938 8.39062 16.3612 9.69937 15.2287C10.0556 14.9175 10.4419 14.685 10.7625 14.4919L10.8712 14.4263C11.16 14.2556 11.3831 14.1225 11.5819 13.9687C11.7614 13.8402 11.9106 13.6738 12.0187 13.4812C12.1425 13.2245 12.2005 12.941 12.1875 12.6562C12.1932 12.296 12.0687 11.9458 11.8369 11.67C11.6306 11.4375 11.3062 11.25 10.7869 11.25C10.1681 11.25 9.84 11.5238 9.63562 11.8031C9.51283 11.9738 9.41965 12.164 9.36 12.3656L9.3525 12.39ZM16.875 9.375C17.1236 9.375 17.3621 9.47377 17.5379 9.64959C17.7137 9.8254 17.8125 10.0639 17.8125 10.3125V15H20.625V10.3125C20.625 10.0639 20.7238 9.8254 20.8996 9.64959C21.0754 9.47377 21.3139 9.375 21.5625 9.375C21.8111 9.375 22.0496 9.47377 22.2254 9.64959C22.4012 9.8254 22.5 10.0639 22.5 10.3125V19.6875C22.5 19.9361 22.4012 20.1746 22.2254 20.3504C22.0496 20.5262 21.8111 20.625 21.5625 20.625C21.3139 20.625 21.0754 20.5262 20.8996 20.3504C20.7238 20.1746 20.625 19.9361 20.625 19.6875V16.875H16.875C16.6264 16.875 16.3879 16.7762 16.2121 16.6004C16.0363 16.4246 15.9375 16.1861 15.9375 15.9375V10.3125C15.9375 10.0639 16.0363 9.8254 16.2121 9.64959C16.3879 9.47377 16.6264 9.375 16.875 9.375ZM15 0C11.0218 0 7.20644 1.58035 4.3934 4.3934C1.58035 7.20644 0 11.0218 0 15C0 18.9782 1.58035 22.7936 4.3934 25.6066C7.20644 28.4196 11.0218 30 15 30C18.9782 30 22.7936 28.4196 25.6066 25.6066C28.4196 22.7936 30 18.9782 30 15C30 11.0218 28.4196 7.20644 25.6066 4.3934C22.7936 1.58035 18.9782 0 15 0V0ZM1.875 15C1.875 13.2764 2.21449 11.5697 2.87408 9.97728C3.53367 8.38488 4.50045 6.93799 5.71922 5.71922C6.93799 4.50045 8.38488 3.53367 9.97728 2.87408C11.5697 2.21449 13.2764 1.875 15 1.875C16.7236 1.875 18.4303 2.21449 20.0227 2.87408C21.6151 3.53367 23.062 4.50045 24.2808 5.71922C25.4995 6.93799 26.4663 8.38488 27.1259 9.97728C27.7855 11.5697 28.125 13.2764 28.125 15C28.125 18.481 26.7422 21.8194 24.2808 24.2808C21.8194 26.7422 18.481 28.125 15 28.125C11.519 28.125 8.18064 26.7422 5.71922 24.2808C3.25781 21.8194 1.875 18.481 1.875 15Z" fill="white"/>
</svg>
