<svg width="49" height="49" viewBox="0 0 49 49" fill="none" xmlns="http://www.w3.org/2000/svg">
<path d="M42.4094 20.7331L39.6164 12.3541C39.2113 11.1342 38.4319 10.073 37.3892 9.32124C36.3465 8.56952 35.0933 8.16552 33.8079 8.16667H15.192C13.9065 8.16552 12.6534 8.56952 11.6106 9.32124C10.5679 10.073 9.78858 11.1342 9.38342 12.3541L6.59042 20.7331C5.84771 21.0439 5.21344 21.5673 4.76735 22.2375C4.32126 22.9077 4.08325 23.6949 4.08325 24.5V34.7083C4.08325 36.2151 4.90809 37.5177 6.12492 38.2261V42.875C6.12492 43.4165 6.34002 43.9358 6.72291 44.3187C7.1058 44.7016 7.6251 44.9167 8.16659 44.9167H10.2083C10.7497 44.9167 11.269 44.7016 11.6519 44.3187C12.0348 43.9358 12.2499 43.4165 12.2499 42.875V38.7917H36.7499V42.875C36.7499 43.4165 36.965 43.9358 37.3479 44.3187C37.7308 44.7016 38.2501 44.9167 38.7916 44.9167H40.8333C41.3747 44.9167 41.894 44.7016 42.2769 44.3187C42.6598 43.9358 42.8749 43.4165 42.8749 42.875V38.2261C43.4943 37.8709 44.0092 37.3587 44.3676 36.7411C44.7261 36.1235 44.9154 35.4224 44.9166 34.7083V24.5C44.9166 23.6949 44.6786 22.9077 44.2325 22.2375C43.7864 21.5673 43.1521 21.0439 42.4094 20.7331ZM15.192 12.25H33.8058C34.6858 12.25 35.4657 12.8094 35.7434 13.6465L38.0015 20.4167H10.9984L13.2544 13.6465C13.3899 13.2398 13.6499 12.886 13.9977 12.6354C14.3454 12.3847 14.7633 12.2499 15.192 12.25ZM11.2291 32.6667C10.8268 32.6665 10.4284 32.5872 10.0568 32.4331C9.68517 32.279 9.34753 32.0532 9.06315 31.7687C8.77877 31.4841 8.55322 31.1463 8.39939 30.7746C8.24556 30.4028 8.16645 30.0044 8.16659 29.6021C8.16672 29.1998 8.24609 28.8015 8.40017 28.4298C8.55425 28.0582 8.78002 27.7206 9.06459 27.4362C9.34916 27.1518 9.68696 26.9263 10.0587 26.7724C10.4304 26.6186 10.8288 26.5395 11.2311 26.5396C12.0436 26.5399 12.8227 26.8629 13.3971 27.4376C13.9714 28.0123 14.2939 28.7917 14.2936 29.6042C14.2934 30.4167 13.9703 31.1958 13.3956 31.7701C12.8209 32.3444 12.0416 32.6669 11.2291 32.6667ZM37.7708 32.6667C37.3684 32.6665 36.9701 32.5872 36.5985 32.4331C36.2268 32.279 35.8892 32.0532 35.6048 31.7687C35.3204 31.4841 35.0949 31.1463 34.9411 30.7746C34.7872 30.4028 34.7081 30.0044 34.7083 29.6021C34.7084 29.1998 34.7878 28.8015 34.9418 28.4298C35.0959 28.0582 35.3217 27.7206 35.6063 27.4362C35.8908 27.1518 36.2286 26.9263 36.6004 26.7724C36.9721 26.6186 37.3705 26.5395 37.7728 26.5396C38.5853 26.5399 39.3644 26.8629 39.9387 27.4376C40.5131 28.0123 40.8356 28.7917 40.8353 29.6042C40.835 30.4167 40.512 31.1958 39.9373 31.7701C39.3626 32.3444 38.5832 32.6669 37.7708 32.6667Z" fill="#AAAAAA"/>
</svg>
