<svg width="22" height="22" viewBox="0 0 22 22" fill="none" xmlns="http://www.w3.org/2000/svg">
<path d="M1 18.5V6.625C1 5.13316 1.59263 3.70242 2.64752 2.64752C3.70242 1.59263 5.13316 1 6.625 1H15.375C16.1137 1 16.8451 1.14549 17.5276 1.42818C18.21 1.71086 18.8301 2.12519 19.3525 2.64752C19.8748 3.16985 20.2891 3.78995 20.5718 4.47241C20.8545 5.15486 21 5.88631 21 6.625V15.375C21 16.1137 20.8545 16.8451 20.5718 17.5276C20.2891 18.21 19.8748 18.8301 19.3525 19.3525C18.8301 19.8748 18.21 20.2891 17.5276 20.5718C16.8451 20.8545 16.1137 21 15.375 21H3.5C2.83696 21 2.20107 20.7366 1.73223 20.2678C1.26339 19.7989 1 19.163 1 18.5V18.5Z" stroke="white" stroke-width="2" stroke-linecap="round" stroke-linejoin="round"/>
<path d="M6 11H10.375C11.038 11 11.6739 11.2634 12.1428 11.7322C12.6116 12.2011 12.875 12.837 12.875 13.5C12.875 14.163 12.6116 14.7989 12.1428 15.2678C11.6739 15.7366 11.038 16 10.375 16H6V7.25C6 6.91848 6.1317 6.60054 6.36612 6.36612C6.60054 6.1317 6.91848 6 7.25 6H9.125C9.78804 6 10.4239 6.26339 10.8928 6.73223C11.3616 7.20107 11.625 7.83696 11.625 8.5C11.625 9.16304 11.3616 9.79893 10.8928 10.2678C10.4239 10.7366 9.78804 11 9.125 11H7.25" stroke="white" stroke-width="2" stroke-linecap="round" stroke-linejoin="round"/>
<path d="M16 16H16.0125" stroke="white" stroke-width="2" stroke-linecap="round" stroke-linejoin="round"/>
</svg>
