<svg width="20" height="24" viewBox="0 0 20 24" fill="none" xmlns="http://www.w3.org/2000/svg">
<path d="M10.625 5.625C12.85 5.625 13.675 6.6875 13.75 8.25H16.5125C16.425 6.1 15.1125 4.125 12.5 3.4875V0.75H8.75001V3.45C8.08751 3.6 7.46251 3.825 6.90001 4.125L8.73751 5.9625C9.25001 5.75 9.87501 5.625 10.625 5.625ZM1.66251 2.075L0.0750122 3.6625L4.37501 7.9625C4.37501 10.5625 6.32501 11.975 9.26251 12.85L13.65 17.2375C13.225 17.8375 12.3375 18.375 10.625 18.375C8.05001 18.375 7.03751 17.225 6.90001 15.75H4.15001C4.30001 18.4875 6.35001 20.025 8.75001 20.5375V23.25H12.5V20.5625C13.7 20.3375 14.775 19.875 15.5625 19.1625L18.3375 21.9375L19.925 20.35L1.66251 2.075Z" fill="white"/>
</svg>
